<svg width="145" height="20" viewBox="0 0 145 20" fill="none"
    xmlns="http://www.w3.org/2000/svg">
    <path fill-rule="evenodd" clip-rule="evenodd" d="M100.945 4.46374C98.5888 4.46374 96.4234 6.58998 96.4234 9.99962C96.4234 13.5055 98.1286 15.5167 100.774 15.5167C101.959 15.5167 103.053 14.8852 103.839 14.0799H103.914L104.086 15.2678H105.887V0H103.684V3.90963L103.78 5.65092C102.918 4.92312 102.152 4.46374 100.945 4.46374ZM103.684 7.26063V12.4138C102.918 13.295 102.171 13.6972 101.289 13.6972C99.6421 13.6972 98.7031 12.3755 98.7031 9.98083C98.7031 7.70121 99.891 6.30277 101.366 6.30277C102.152 6.30277 102.898 6.55163 103.684 7.26063ZM91.3665 1.43679C91.3665 0.651106 91.9221 0.133832 92.7266 0.133832C93.5311 0.133832 94.1062 0.651106 94.1062 1.43679C94.1062 2.24127 93.5318 2.75855 92.7266 2.75855C91.9214 2.75855 91.3665 2.24127 91.3665 1.43679ZM91.6349 4.7314H93.8378V15.2678H91.6349V4.7314ZM73.2581 1.12777H75.5415L76.8655 8.49592C77.0662 9.69896 77.2665 10.9151 77.467 12.1331L77.4672 12.1342L77.4672 12.1346L77.6136 13.0236H77.6888C77.9956 11.5086 78.3219 9.9921 78.6482 8.49592L80.4707 1.12777H82.4473L84.2698 8.49592C84.478 9.43887 84.6783 10.3974 84.8808 11.3666C84.9956 11.9158 85.1111 12.4685 85.2291 13.0236H85.3254C85.4739 12.0326 85.6304 11.0494 85.7847 10.0794V10.0794L85.7847 10.0793L85.7847 10.0792L85.7847 10.0791L85.7848 10.0787C85.8694 9.5469 85.9534 9.019 86.0351 8.49592L87.3779 1.12777H89.5079L86.7261 15.2678H83.9818L82.0841 7.42077C81.8345 6.30803 81.6232 5.25243 81.4315 4.17803H81.3563C81.2181 4.88093 81.0718 5.57578 80.9228 6.28385C80.844 6.65808 80.7645 7.03601 80.6849 7.42077L78.8241 15.2678H76.1377L73.2581 1.12777ZM108.434 17.2219C108.434 16.3407 108.99 15.5167 109.967 14.9235V14.8273C109.43 14.5017 109.009 13.9461 109.009 13.0845C109.009 12.2574 109.603 11.5515 110.197 11.1297V11.0545C109.764 10.7228 109.413 10.2966 109.171 9.80842C108.928 9.32024 108.801 8.78307 108.798 8.23804C108.798 5.86294 110.695 4.4645 112.879 4.4645C113.402 4.46223 113.921 4.55286 114.411 4.73216H118.147V6.37946H116.135C116.538 6.8005 116.825 7.50724 116.825 8.31398C116.825 10.6131 115.082 11.9349 112.879 11.9349C112.37 11.93 111.868 11.8191 111.404 11.6093C111.059 11.9153 110.829 12.2026 110.829 12.7198C110.829 13.3521 111.251 13.7544 112.591 13.7544H114.527C117.017 13.7544 118.32 14.5205 118.32 16.3219C118.32 18.3519 116.174 20 112.803 20C110.273 19.9993 108.434 19.0609 108.434 17.2219ZM116.193 16.6663C116.193 15.7851 115.503 15.5167 114.22 15.5167H112.627C112.151 15.517 111.676 15.4666 111.21 15.3663C110.578 15.8257 110.308 16.3625 110.308 16.8986C110.308 17.9332 111.381 18.5459 113.124 18.5459C114.967 18.5437 116.193 17.6437 116.193 16.6663ZM114.871 8.23729C114.871 6.83885 113.99 6.01557 112.879 6.01557C111.769 6.01557 110.887 6.82005 110.887 8.23729C110.887 9.65453 111.789 10.5169 112.879 10.5169C113.969 10.5169 114.871 9.65528 114.871 8.23729ZM124.008 4.46374C121.556 4.46374 119.2 6.58997 119.2 9.99962C119.2 13.4867 121.48 15.5167 124.331 15.5137C125.603 15.506 126.844 15.1194 127.894 14.4032L127.128 13.0048C126.361 13.5025 125.557 13.7897 124.619 13.7897C122.798 13.7897 121.535 12.583 121.362 10.5718H128.203C128.279 10.2006 128.318 9.82282 128.318 9.444C128.318 6.47494 126.805 4.46374 124.008 4.46374ZM124.046 6.18472C125.576 6.18472 126.403 7.23732 126.403 9.04176H121.346C121.556 7.19972 122.725 6.18472 124.046 6.18472ZM130.905 11.8199V6.49449H129.372V4.84643L131.02 4.7314L131.269 1.82023H133.108V4.7314H135.847V6.49449H133.108V11.8387C133.108 13.1033 133.548 13.7544 134.64 13.7544C135.028 13.7418 135.41 13.6574 135.768 13.5055L136.171 15.134C135.577 15.3257 134.868 15.5167 134.102 15.5167C131.728 15.5167 130.905 14.0416 130.905 11.8199ZM137.859 12.6416L136.824 14.0596C137.859 14.9039 139.334 15.5167 140.786 15.5152C143.391 15.5152 144.789 14.0784 144.789 12.3161C144.789 10.3237 143.162 9.67256 141.686 9.11695C141.642 9.10079 141.599 9.08474 141.555 9.06878C140.463 8.66877 139.506 8.31844 139.506 7.45084C139.506 6.7223 140.042 6.14788 141.211 6.14788C142.073 6.14788 142.82 6.53058 143.548 7.0674L144.583 5.7088C143.74 5.03815 142.571 4.46374 141.173 4.46374C138.835 4.46374 137.418 5.78399 137.418 7.54633C137.418 9.32746 138.97 10.0748 140.387 10.6116C140.433 10.6294 140.479 10.6472 140.524 10.665C141.611 11.0871 142.705 11.512 142.705 12.4311C142.705 13.2356 142.111 13.8491 140.847 13.8491C139.717 13.8491 138.797 13.3702 137.859 12.6416Z" fill="white" fill-opacity="0.6"/>
    <path fill-rule="evenodd" clip-rule="evenodd" d="M10.5898 11.0597C9.93647 11.5785 9.0974 11.892 7.81925 11.804C5.63889 11.6536 4.36074 10.0379 4.36074 8.04476C4.36074 6.0516 5.71407 4.36069 7.81925 4.2855C9.0974 4.23964 9.90038 4.50579 10.5515 5.00051L12.6364 2.02243C11.3244 0.984123 9.55227 0.526245 7.51851 0.526245C3.15778 0.526245 0 3.68402 0 8.04476C0 12.4055 3.15778 15.5633 7.51851 15.5633C9.59062 15.5633 11.3913 15.0873 12.71 14.0077L10.5898 11.0597ZM67.8922 8.04481C67.8922 5.93962 66.0877 4.13518 62.6292 4.13518C60.83 4.13518 59.5699 4.45772 58.8467 4.71711L59.4617 7.52678C63.3059 6.39073 64.584 7.66888 64.4337 9.24777C64.4337 9.24777 62.93 8.49592 61.2759 8.49592C58.87 8.49592 57.5166 10.15 57.5166 11.992C57.5166 14.3604 59.0203 15.5633 61.2759 15.5633C62.6007 15.5633 63.7638 14.9671 64.4337 14.0664V15.2626H67.8922V8.04481ZM62.4789 12.9318C61.5766 12.9318 61.1255 12.4807 61.1255 11.7289C61.1255 10.977 61.727 10.5259 62.4789 10.5259C63.3208 10.5259 63.7699 10.6569 64.293 10.8094L64.4066 10.8424C64.4066 11.8792 63.8322 12.9318 62.4789 12.9318ZM13.089 9.84925C13.089 6.53509 15.6393 4.13518 18.9534 4.13518C22.2676 4.13518 24.8231 6.53509 24.8179 9.84925C24.8126 13.1634 22.2676 15.5633 18.9534 15.5633C15.6393 15.5633 13.089 13.1634 13.089 9.84925ZM16.7663 9.84925C16.7663 11.2778 17.6685 12.2552 18.9467 12.2552C20.2248 12.2552 21.127 11.2026 21.127 9.84925C21.127 8.49592 20.2248 7.44333 18.9467 7.44333C17.6685 7.44333 16.7663 8.49592 16.7663 9.84925ZM32.7055 4.13518C31.4432 4.13518 30.256 4.82763 29.4726 5.75993V4.43592H26.0141V15.2626H29.4726V8.94703C29.4726 8.52828 29.6389 8.12668 29.935 7.83059C30.2311 7.53449 30.6327 7.36814 31.0515 7.36814C31.4702 7.36814 31.8718 7.53449 32.1679 7.83059C32.464 8.12668 32.6303 8.52828 32.6303 8.94703V15.2626H36.0889V7.5937C36.0889 5.63888 34.8107 4.13518 32.7055 4.13518ZM52.3289 10.6237C52.3289 11.6537 53.0055 12.2552 54.2837 12.2552C54.7991 12.2402 55.306 12.1189 55.7723 11.8988L56.7242 14.6724C56.0114 15.0288 54.6791 15.5633 53.1153 15.5633C50.4252 15.5633 48.9282 14.2626 48.8703 12.4055V1.5037H52.3289V4.43592H55.637L55.4866 7.44332H52.3289V10.6237ZM57.2678 14.2949L57.261 14.3791L57.2911 14.3603L57.2678 14.2949ZM38.4948 11.9544L37.2918 14.0596C38.7782 15.0987 40.5308 15.6385 42.5488 15.6385C45.3697 15.6385 47.1411 14.1814 47.1411 11.8041V11.7672C47.1411 9.52971 45.5622 8.76808 42.9307 8.09142C41.8826 7.81173 41.6526 7.44332 41.6526 7.14258C41.6653 6.97856 41.7323 6.82347 41.843 6.70176C41.9537 6.58005 42.1018 6.49866 42.2638 6.47042C43.1563 6.31554 44.6073 6.80425 45.7126 7.44332L46.9524 5.39377C45.6945 4.59456 43.9983 4.05999 42.2834 4.05999C39.5767 4.05999 37.7475 5.47347 37.7475 7.87112V7.91097C37.7475 10.1688 39.3654 10.9109 41.9969 11.5875C43.0457 11.8672 43.2315 12.2552 43.2315 12.4807C43.2315 12.7063 43.0224 13.0191 42.6074 13.0777C41.5022 13.2326 39.7526 12.7739 38.4948 11.9544Z" fill="#0078D2"/>
    <path fill-rule="evenodd" clip-rule="evenodd" d="M10.5898 11.0597C9.93647 11.5785 9.0974 11.892 7.81925 11.804C5.63889 11.6536 4.36074 10.0379 4.36074 8.04476C4.36074 6.0516 5.71407 4.36069 7.81925 4.2855C9.0974 4.23964 9.90038 4.50579 10.5515 5.00051L12.6364 2.02243C11.3244 0.984123 9.55227 0.526245 7.51851 0.526245C3.15778 0.526245 0 3.68402 0 8.04476C0 12.4055 3.15778 15.5633 7.51851 15.5633C9.59062 15.5633 11.3913 15.0873 12.71 14.0077L10.5898 11.0597ZM67.8922 8.04481C67.8922 5.93962 66.0877 4.13518 62.6292 4.13518C60.83 4.13518 59.5699 4.45772 58.8467 4.71711L59.4617 7.52678C63.3059 6.39073 64.584 7.66888 64.4337 9.24777C64.4337 9.24777 62.93 8.49592 61.2759 8.49592C58.87 8.49592 57.5166 10.15 57.5166 11.992C57.5166 14.3604 59.0203 15.5633 61.2759 15.5633C62.6007 15.5633 63.7638 14.9671 64.4337 14.0664V15.2626H67.8922V8.04481ZM62.4789 12.9318C61.5766 12.9318 61.1255 12.4807 61.1255 11.7289C61.1255 10.977 61.727 10.5259 62.4789 10.5259C63.3208 10.5259 63.7699 10.6569 64.293 10.8094L64.4066 10.8424C64.4066 11.8792 63.8322 12.9318 62.4789 12.9318ZM13.089 9.84925C13.089 6.53509 15.6393 4.13518 18.9534 4.13518C22.2676 4.13518 24.8231 6.53509 24.8179 9.84925C24.8126 13.1634 22.2676 15.5633 18.9534 15.5633C15.6393 15.5633 13.089 13.1634 13.089 9.84925ZM16.7663 9.84925C16.7663 11.2778 17.6685 12.2552 18.9467 12.2552C20.2248 12.2552 21.127 11.2026 21.127 9.84925C21.127 8.49592 20.2248 7.44333 18.9467 7.44333C17.6685 7.44333 16.7663 8.49592 16.7663 9.84925ZM32.7055 4.13518C31.4432 4.13518 30.256 4.82763 29.4726 5.75993V4.43592H26.0141V15.2626H29.4726V8.94703C29.4726 8.52828 29.6389 8.12668 29.935 7.83059C30.2311 7.53449 30.6327 7.36814 31.0515 7.36814C31.4702 7.36814 31.8718 7.53449 32.1679 7.83059C32.464 8.12668 32.6303 8.52828 32.6303 8.94703V15.2626H36.0889V7.5937C36.0889 5.63888 34.8107 4.13518 32.7055 4.13518ZM52.3289 10.6237C52.3289 11.6537 53.0055 12.2552 54.2837 12.2552C54.7991 12.2402 55.306 12.1189 55.7723 11.8988L56.7242 14.6724C56.0114 15.0288 54.6791 15.5633 53.1153 15.5633C50.4252 15.5633 48.9282 14.2626 48.8703 12.4055V1.5037H52.3289V4.43592H55.637L55.4866 7.44332H52.3289V10.6237ZM57.2678 14.2949L57.261 14.3791L57.2911 14.3603L57.2678 14.2949ZM38.4948 11.9544L37.2918 14.0596C38.7782 15.0987 40.5308 15.6385 42.5488 15.6385C45.3697 15.6385 47.1411 14.1814 47.1411 11.8041V11.7672C47.1411 9.52971 45.5622 8.76808 42.9307 8.09142C41.8826 7.81173 41.6526 7.44332 41.6526 7.14258C41.6653 6.97856 41.7323 6.82347 41.843 6.70176C41.9537 6.58005 42.1018 6.49866 42.2638 6.47042C43.1563 6.31554 44.6073 6.80425 45.7126 7.44332L46.9524 5.39377C45.6945 4.59456 43.9983 4.05999 42.2834 4.05999C39.5767 4.05999 37.7475 5.47347 37.7475 7.87112V7.91097C37.7475 10.1688 39.3654 10.9109 41.9969 11.5875C43.0457 11.8672 43.2315 12.2552 43.2315 12.4807C43.2315 12.7063 43.0224 13.0191 42.6074 13.0777C41.5022 13.2326 39.7526 12.7739 38.4948 11.9544Z" fill="url(#paint0_linear)" style="mix-blend-mode:overlay"/>
    <defs>
        <linearGradient id="paint0_linear" x1="50.5413" y1="-22.9816" x2="14.6673" y2="38.1511" gradientUnits="userSpaceOnUse">
            <stop stop-color="white" stop-opacity="0.6"/>
            <stop offset="1" stop-color="white" stop-opacity="0"/>
        </linearGradient>
    </defs>
</svg>
