<svg
  width="200"
  height="120"
  viewBox="0 0 200 120"
  fill="none"
  xmlns="http://www.w3.org/2000/svg"
>
  <g clip-path="url(#clip0_1910_15952)">
    <rect width="200" height="120" rx="4" fill="var(--color-bg-secondary)" />
    <rect
      x="19"
      y="39"
      width="75"
      height="42"
      rx="4"
      fill="var(--color-bg-default)"
    />
    <path
      d="M31.6035 63.4102V72H30.2441V65.0742C29.998 65.25 29.7324 65.4004 29.4473 65.5254C29.166 65.6465 28.8438 65.7539 28.4805 65.8477V64.6875C28.707 64.6133 28.9258 64.5352 29.1367 64.4531C29.3477 64.3711 29.5547 64.2793 29.7578 64.1777C29.9648 64.0762 30.1719 63.9629 30.3789 63.8379C30.5898 63.7129 30.8066 63.5703 31.0293 63.4102H31.6035ZM39.373 72.1406C38.498 72.1406 37.8145 71.7832 37.3223 71.0684C36.834 70.3535 36.5898 69.3203 36.5898 67.9688C36.5898 66.4844 36.8457 65.3613 37.3574 64.5996C37.8691 63.8379 38.6074 63.457 39.5723 63.457C41.4199 63.457 42.3438 64.8926 42.3438 67.7637C42.3438 69.1855 42.082 70.2715 41.5586 71.0215C41.0391 71.7676 40.3105 72.1406 39.373 72.1406ZM39.5078 64.541C38.4883 64.541 37.9785 65.6641 37.9785 67.9102C37.9785 70.0117 38.4785 71.0625 39.4785 71.0625C40.4629 71.0625 40.9551 69.9941 40.9551 67.8574C40.9551 65.6465 40.4727 64.541 39.5078 64.541ZM46.041 72.1406C45.166 72.1406 44.4824 71.7832 43.9902 71.0684C43.502 70.3535 43.2578 69.3203 43.2578 67.9688C43.2578 66.4844 43.5137 65.3613 44.0254 64.5996C44.5371 63.8379 45.2754 63.457 46.2402 63.457C48.0879 63.457 49.0117 64.8926 49.0117 67.7637C49.0117 69.1855 48.75 70.2715 48.2266 71.0215C47.707 71.7676 46.9785 72.1406 46.041 72.1406ZM46.1758 64.541C45.1562 64.541 44.6465 65.6641 44.6465 67.9102C44.6465 70.0117 45.1465 71.0625 46.1465 71.0625C47.1309 71.0625 47.623 69.9941 47.623 67.8574C47.623 65.6465 47.1406 64.541 46.1758 64.541ZM52.709 72.1406C51.834 72.1406 51.1504 71.7832 50.6582 71.0684C50.1699 70.3535 49.9258 69.3203 49.9258 67.9688C49.9258 66.4844 50.1816 65.3613 50.6934 64.5996C51.2051 63.8379 51.9434 63.457 52.9082 63.457C54.7559 63.457 55.6797 64.8926 55.6797 67.7637C55.6797 69.1855 55.418 70.2715 54.8945 71.0215C54.375 71.7676 53.6465 72.1406 52.709 72.1406ZM52.8438 64.541C51.8242 64.541 51.3145 65.6641 51.3145 67.9102C51.3145 70.0117 51.8145 71.0625 52.8145 71.0625C53.7988 71.0625 54.291 69.9941 54.291 67.8574C54.291 65.6465 53.8086 64.541 52.8438 64.541Z"
      fill="var(--color-control-typo-ghost)"
      fill-opacity="0.6"
    />
    <path
      d="M76.5352 72H75.7344V65.9502C75.6725 66.012 75.5814 66.0837 75.4609 66.165C75.3438 66.2432 75.2103 66.3213 75.0605 66.3994C74.9141 66.4775 74.7578 66.5508 74.5918 66.6191C74.429 66.6875 74.2695 66.7412 74.1133 66.7803V65.9697C74.2891 65.9209 74.4746 65.8558 74.6699 65.7744C74.8685 65.6898 75.0622 65.597 75.251 65.4961C75.443 65.3919 75.6237 65.2845 75.793 65.1738C75.9622 65.0599 76.1087 64.9492 76.2324 64.8418H76.5352V72ZM83.1221 69.8613C83.1221 70.2031 83.0635 70.5124 82.9463 70.7891C82.8291 71.0658 82.6615 71.3034 82.4434 71.502C82.2285 71.7005 81.9681 71.8535 81.6621 71.9609C81.3561 72.0684 81.016 72.1221 80.6416 72.1221C79.9906 72.1221 79.5072 72.0244 79.1914 71.8291V70.9795C79.6667 71.2855 80.1533 71.4385 80.6514 71.4385C80.9053 71.4385 81.1331 71.401 81.335 71.3262C81.54 71.2513 81.7142 71.1471 81.8574 71.0137C82.0007 70.8802 82.1097 70.7191 82.1846 70.5303C82.2627 70.3415 82.3018 70.1348 82.3018 69.9102C82.3018 69.4544 82.1488 69.098 81.8428 68.8408C81.5368 68.5804 81.0924 68.4502 80.5098 68.4502C80.4154 68.4502 80.3161 68.4518 80.2119 68.4551C80.1077 68.4583 80.0036 68.4632 79.8994 68.4697C79.7952 68.473 79.6927 68.4779 79.5918 68.4844C79.4941 68.4909 79.4046 68.499 79.3232 68.5088L79.5625 64.998H82.7998V65.7207H80.2559L80.1143 67.7764C80.2184 67.7699 80.3291 67.765 80.4463 67.7617C80.5635 67.7552 80.6676 67.752 80.7588 67.752C81.1299 67.752 81.4619 67.8008 81.7549 67.8984C82.0479 67.9961 82.2952 68.1361 82.4971 68.3184C82.7021 68.4974 82.8568 68.7188 82.9609 68.9824C83.0684 69.2428 83.1221 69.5358 83.1221 69.8613Z"
      fill="#09B37B"
    />
    <path d="M67 68L71 72H63L67 68Z" fill="#09B37B" />
    <rect
      x="106"
      y="39"
      width="75"
      height="42"
      rx="4"
      fill="var(--color-bg-default)"
    />
    <path
      d="M119.043 69.2227H115.844V68.2207H119.043V69.2227ZM123.432 63.4102V72H122.072V65.0742C121.826 65.25 121.561 65.4004 121.275 65.5254C120.994 65.6465 120.672 65.7539 120.309 65.8477V64.6875C120.535 64.6133 120.754 64.5352 120.965 64.4531C121.176 64.3711 121.383 64.2793 121.586 64.1777C121.793 64.0762 122 63.9629 122.207 63.8379C122.418 63.7129 122.635 63.5703 122.857 63.4102H123.432ZM127.896 72.1406C127.021 72.1406 126.338 71.7832 125.846 71.0684C125.357 70.3535 125.113 69.3203 125.113 67.9688C125.113 66.4844 125.369 65.3613 125.881 64.5996C126.393 63.8379 127.131 63.457 128.096 63.457C129.943 63.457 130.867 64.8926 130.867 67.7637C130.867 69.1855 130.605 70.2715 130.082 71.0215C129.562 71.7676 128.834 72.1406 127.896 72.1406ZM128.031 64.541C127.012 64.541 126.502 65.6641 126.502 67.9102C126.502 70.0117 127.002 71.0625 128.002 71.0625C128.986 71.0625 129.479 69.9941 129.479 67.8574C129.479 65.6465 128.996 64.541 128.031 64.541ZM134.564 72.1406C133.689 72.1406 133.006 71.7832 132.514 71.0684C132.025 70.3535 131.781 69.3203 131.781 67.9688C131.781 66.4844 132.037 65.3613 132.549 64.5996C133.061 63.8379 133.799 63.457 134.764 63.457C136.611 63.457 137.535 64.8926 137.535 67.7637C137.535 69.1855 137.273 70.2715 136.75 71.0215C136.23 71.7676 135.502 72.1406 134.564 72.1406ZM134.699 64.541C133.68 64.541 133.17 65.6641 133.17 67.9102C133.17 70.0117 133.67 71.0625 134.67 71.0625C135.654 71.0625 136.146 69.9941 136.146 67.8574C136.146 65.6465 135.664 64.541 134.699 64.541Z"
      fill="var(--color-control-typo-ghost)"
      fill-opacity="0.6"
    />
    <path
      d="M157.535 72H156.734V65.9502C156.673 66.012 156.581 66.0837 156.461 66.165C156.344 66.2432 156.21 66.3213 156.061 66.3994C155.914 66.4775 155.758 66.5508 155.592 66.6191C155.429 66.6875 155.27 66.7412 155.113 66.7803V65.9697C155.289 65.9209 155.475 65.8558 155.67 65.7744C155.868 65.6898 156.062 65.597 156.251 65.4961C156.443 65.3919 156.624 65.2845 156.793 65.1738C156.962 65.0599 157.109 64.9492 157.232 64.8418H157.535V72Z"
      fill="#EB3333"
    />
    <path d="M148 72L144 68H152L148 72Z" fill="#EB3333" />
    <rect
      width="58.9658"
      height="4.00032"
      transform="matrix(1 0 -0.0117399 0.999931 114.047 47)"
      fill="var(--color-control-typo-ghost)"
      fill-opacity="0.35"
    />
    <rect
      width="58.9545"
      height="4.00032"
      transform="matrix(1 0 -0.0117399 0.999931 27.0469 47)"
      fill="var(--color-control-typo-ghost)"
      fill-opacity="0.35"
    />
  </g>
  <defs>
    <clipPath id="clip0_1910_15952">
      <rect width="200" height="120" rx="3" fill="var(--color-bg-default)" />
    </clipPath>
  </defs>
</svg>
